<svg xmlns="http://www.w3.org/2000/svg" viewBox="0 0 106.24 108.33"><defs><style>.cls-1{fill:#d4c45e;}.cls-2{fill:#6fa631;}.cls-3{font-size:13px;font-family:YuMin-Medium-83pv-RKSJ-H, YuMincho;letter-spacing:0.1em;}.cls-4{letter-spacing:0.35em;}</style></defs><g id="レイヤー_2" data-name="レイヤー 2"><g id="footer"><g id="go-to-top"><path class="cls-1" d="M12.29,29.57C41.89,3.77,43.77,0,54.45,0S82.93,21.45,90,29.57s13.48,30.71,13.48,30.71,6.19,16.33-.09,18.22-91.14,0-91.14,0C-10.86,61.54,12.29,29.57,12.29,29.57Z"/><path class="cls-2" d="M10.29,58.57C39.89,32.77,41.77,29,52.45,29S80.93,50.45,88,58.57s13.48,30.71,13.48,30.71,6.19,16.33-.09,18.22-91.14,0-91.14,0C-12.86,90.54,10.29,58.57,10.29,58.57Z"/><text class="cls-3" transform="translate(29.67 78.84)">TO<tspan class="cls-4" x="22.87" y="0">P</tspan><tspan x="36.04" y="0">へ</tspan></text></g></g></g></svg>