<svg xmlns="http://www.w3.org/2000/svg" viewBox="0 0 51.72 172"><g id="レイヤー_2" data-name="レイヤー 2"><g id="header"><path id="toonkigou-logo" d="M5.07,80.86A4.65,4.65,0,0,0,5,84.43c.82,2.53,2,5,2,7.86,0,.92,1.1,1.86,1.75,2.75.15.21.6.21.7.42,1,2.11,3.19,2.47,4.89,3.51,2.17,1.31,5.9.66,6.13-2.1.18-2.08-.44-4.23-.59-6.36-.11-1.39-.48-3.05.08-4.14,1-1.92.22-3.62.16-5.41s0-3.66,0-5.49c0-.89-.27-1.77-.25-2.64.07-2.22.41-4.44.29-6.64A15.81,15.81,0,0,1,20.46,61a9,9,0,0,0-.23-2.88A2.92,2.92,0,0,1,20.17,57c.87-2.52.3-5.12.51-7.64A5.79,5.79,0,0,0,19,44.3a1.78,1.78,0,0,0-.86-.53c-2.29-.45-3.63-2.27-5.07-3.89a15.49,15.49,0,0,1-2-3.25,19.25,19.25,0,0,1-2.1-4.92c-.47-2.69-2.21-5.08-1.66-8a15.73,15.73,0,0,0,.35-2.11c.06-1-.08-1.95,0-2.9a32.62,32.62,0,0,1,.7-3.65A24.09,24.09,0,0,1,9,12.74a12.87,12.87,0,0,1,.6-1.44c.38-.78.77-1.55,1.19-2.31a8.23,8.23,0,0,1,1-1.46c1.48-1.6,3-3.18,4.51-4.74a1.41,1.41,0,0,1,.88-.46,11,11,0,0,0,7-1.89c1.11-.79,2.28-.41,3.32.33,1.89,1.35,4.12,1.14,6.21,1.59a6.71,6.71,0,0,1,2.42,1.48,3.87,3.87,0,0,1,1,1.43,12.84,12.84,0,0,1,1.29,3.58,22.2,22.2,0,0,1-1,10.35,8.73,8.73,0,0,1-1.1,2.15c-.25.32-.87.34-1.32.49-.15-.5-.53-1.08-.4-1.49.91-3,.4-6.13.22-9.17-.07-1.11-1.17-2.24-2-3.18a11.64,11.64,0,0,0-2.71-2.19A6.39,6.39,0,0,0,27.54,5a20.56,20.56,0,0,0-4,0,5.44,5.44,0,0,0-1.83.79,12.33,12.33,0,0,0-2.64,1.47,29.26,29.26,0,0,0-3.2,3.38c-.39.46-.38,1.4-.81,1.68a5.29,5.29,0,0,0-2.13,3.62c-.29,1.22-1,2.34-1.37,3.54a8.81,8.81,0,0,0-.37,2.17c-.06.75.1,1.53,0,2.26-.79,4.46,1.8,7.44,4.15,10.47,1.69,2.18,3.78,4,4.52,6.92.09.39.6.66.92,1,.21-.35.56-.68.6-1.05a19.65,19.65,0,0,0,.06-2.66c0-1.44-.19-2.89-.16-4.33.06-2.47.13-4.94.36-7.39.26-2.81.67-5.61,1.09-8.4.06-.39.6-.7.92-1,.28.45.76.87.81,1.34a53.1,53.1,0,0,1-.64,12.78,15.53,15.53,0,0,0,.42,3.19,17.45,17.45,0,0,1,0,2.8c-.08,1-.39,2-.41,3a3.71,3.71,0,0,0,2.64,4.09,24.86,24.86,0,0,1,3,1.94,3.22,3.22,0,0,0,1.52.65,2.05,2.05,0,0,1,2.3,1.46,3.2,3.2,0,0,0,3.12,2c3.76.21,6.57,1.63,8.15,5.62.92,2.31,2.79,4.18,4.07,6.36A18.64,18.64,0,0,1,50,66.35c.25.78.24,1.66.56,2.4.78,1.79,1.31,3.52.59,5.53-.17.48.69,1.31.61,1.92-.38,3.14-.83,6.28-1.44,9.38-.17.85-1.08,1.5-1.43,2.35-.67,1.6-1.18,3.26-1.75,4.9-.06.17-.08.43-.19.47a8.58,8.58,0,0,0-4.17,4.17,4.72,4.72,0,0,1-1.06,1.33c-.61.5-1.44,1.38-2,1.24-2.62-.73-4.42,1.11-6.52,2a33.7,33.7,0,0,1-5.26,2.13c-2.88.64-3.22,3.07-3.38,5.25a83.86,83.86,0,0,0,.27,9.09,3.37,3.37,0,0,1,0,1.31,8,8,0,0,0,.3,6.64c1.12,2.53.2,5.29-.33,7.95-.48,2.43-1.07,4.81,0,7.38.52,1.3.08,3,.1,4.55,0,1.71.06,3.41.13,5.11,0,.35.24.7.21,1A66.26,66.26,0,0,1,24,160.83a2.24,2.24,0,0,0,.86,2.59c1.28,1.26,2.61,2.46,3.88,3.72,1.09,1.07.87,2.74-.68,4.16a1.92,1.92,0,0,1-3.18-.33,47.22,47.22,0,0,1-2.79-4.07c-.8-1.32-1.76-1.57-2.46-.28a3.73,3.73,0,0,1-4,2.26,2.71,2.71,0,0,0-1.29.36c-3.32,1.55-4.3.91-6.38-2.37a11.45,11.45,0,0,1-1.52-9c.49-2,3.69-4.28,5.58-3.7a18.49,18.49,0,0,1,3.07,1.33c2.12,1.09,2.87.85,3.55-1.62.77-2.8,1.8-5.6.07-8.52-.82-1.36-.4-2.78.51-4.16a4.39,4.39,0,0,0,.63-3.62,62.78,62.78,0,0,1-1.12-9.89c-.07-1.11.55-2.25.83-3.38.2-.8.68-1.7.49-2.4a18.27,18.27,0,0,1,0-11c1.16-3.47-1.17-6.25-5-6.2a8.09,8.09,0,0,1-6.56-2.59c-.42-.45-1.4-.46-2.12-.44-1.39,0-2.45-.43-2.56-2C3.69,98,2.66,97,1.62,95.92A4.07,4.07,0,0,1,.34,91.45c.27-.88-.23-2-.28-3C0,87.21,0,86,0,84.77V80.55A15,15,0,0,1,.07,78a36.5,36.5,0,0,1,1.1-5,2.48,2.48,0,0,1,1.48-1.52c.45-.1,1.54.71,1.54,1.13a20.16,20.16,0,0,0,1.2,6.12c.17.53-.2,1.26-.32,2.09M25,98.61c2.45,1,4.7.14,6.9-.88.94-.43,2.24-1,2.52-1.79.77-2.18,3.62-2.38,3.86-4.87,2.16,0,2.17-1.95,3.1-3.35A23.47,23.47,0,0,0,45.3,76.54a16.71,16.71,0,0,0,.32-1.92c0-1.55-.49-3.14-.24-4.62A3,3,0,0,0,45,67.42a2.94,2.94,0,0,1-.37-1.15c-.6-3.53-1.38-6.89-5.62-7.4a3,3,0,0,1-1.47-.78c-1.71-1.48-3.42-3-5-4.55a3.7,3.7,0,0,0-3.24-1.39A2.13,2.13,0,0,1,26.9,51c-.43-.66-1.64-.76-2.5-1.11a14.44,14.44,0,0,0-.63,2.1,3.86,3.86,0,0,0,0,2.22c1,1.76.63,3.42.09,5.15a2.08,2.08,0,0,0-.15.68c.23,2.92.65,5.84.67,8.76,0,4.66-.2,9.33-.31,14a5.83,5.83,0,0,0,0,2.13A10.19,10.19,0,0,1,24.27,92,7.5,7.5,0,0,0,25,98.61M14.05,163.75a6.43,6.43,0,0,0,1.34-1.48,1.93,1.93,0,0,0-.06-1.63c-.78-1-4.4-1.89-5.34-1.16a3.25,3.25,0,0,0-.69,2.24c0,.56.53,1.12.8,1.69C11.57,166.52,12,166.58,14.05,163.75Z"/></g></g></svg>