<svg xmlns="http://www.w3.org/2000/svg" viewBox="0 0 197.65 76.18"><defs><style>.cls-1{fill:#fff;}</style></defs><g id="レイヤー_2" data-name="レイヤー 2"><g id="contents"><g id="top-image"><path id="white-logo" class="cls-1" d="M151.91,44.51c-1.52-.46-2.9.21-4.31.16-.58,0-1.15-.18-1.73-.25a4.36,4.36,0,0,0-.51,0l-3.19.06a14,14,0,0,1-1.45,0c-1.12-.09-2.25-.22-3.37-.33a.84.84,0,0,0-.42,0c-1.7.89-3.45-.1-5.18.14a36.78,36.78,0,0,1-3.79.33c-.69,0-1.4-.12-2.1-.14-1,0-2.08,0-3.12,0-.76,0-1.52-.18-2.28-.15a10.94,10.94,0,0,0-2.27.35c-1.23.33-2.43.78-3.69.15a.6.6,0,0,0-.49,0c-1.37.64-2.81.18-4.21.32a13.29,13.29,0,0,1-1.52.16c-1,0-1.93-.16-2.89-.14-1.26,0-2.53.12-3.79.19-.12,0-.26.14-.36.12-1.57-.34-3.1.08-4.65.16-.42,0-.85-.17-1.27-.14a16.93,16.93,0,0,0-1.7.32,6,6,0,0,1-.93.16c-.88,0-1.75,0-2.63,0a3.54,3.54,0,0,0-1.73.47,4.89,4.89,0,0,1-1.81.14c-.18,0-.37-.11-.54-.09a25.34,25.34,0,0,0-4.38.54c-1.49.43-2.95-.06-4.43.23-1,.2-2.14-.13-3.22.2-.37.11-.84-.15-1.26-.13-2.16.09-4.31.2-6.47.33-1.38.08-2.75.2-4.13.33a7.75,7.75,0,0,1-2.44.27c-1.06-.26-2.08.32-3.2-.18-.82-.37-2,0-3,.07-.81.05-1.62.14-2.44.16a1.62,1.62,0,0,0-1.66,1.57A9.76,9.76,0,0,1,49,52.28c-.39,1.09-.33,2.33-1.12,3.31a2.62,2.62,0,0,0-.32,1.19c-.19,1-.29,2.1-.56,3.12-.18.69-.61,1.31-.85,2s-.42,1.5-.63,2.25a1.52,1.52,0,0,1-.28.63,3.5,3.5,0,0,0-1.21,2c-.08.45-.5.84-.73,1.28s-.47,1.2-.81,1.75a14.91,14.91,0,0,1-1.26,1.64,5.23,5.23,0,0,1-.91,1,2.94,2.94,0,0,1-1.38.61,26.7,26.7,0,0,1-3.22-.15,2.9,2.9,0,0,1-2.36-1.16c-.35-.52-.94-.87-1.32-1.37-.59-.78-.53-1.61,0-2a1.49,1.49,0,0,1,2.07.63c.56,1.27,1.76,1.38,2.8,1.69s1.95-.45,2.66-1.19a15.16,15.16,0,0,0,2.66-4.92,4.82,4.82,0,0,0,.42-1.76,1.08,1.08,0,0,1,.31-.69,3.41,3.41,0,0,0,1.24-2.61,10,10,0,0,1,.94-2.6,14.81,14.81,0,0,0,1.18-5.2.58.58,0,0,1,.17-.43c.84-.65.78-1.69,1.12-2.55.16-.37.09-.68-.47-.61a31.21,31.21,0,0,1-3.2.31A10.15,10.15,0,0,1,42,48.15c-.18,0-.39-.17-.53-.11-1.68.65-3.42.24-5.13.3-1.41,0-2.82-.07-4.23-.16-.52,0-1-.22-1.55-.26-.76-.06-1.52,0-2.27-.07-1.32-.09-2.64-.2-4-.35-.09,0-.26-.44-.2-.58a.76.76,0,0,1,.57-.38c1.35,0,2.7.13,4.06.14.95,0,1.9-.17,2.85-.14,1.36,0,2.74.07,4.06,0s2.86-.16,4.3-.21c.25,0,.51.14.76.15a3.16,3.16,0,0,0,1.44,0c1.11-.56,2.19-.17,3.29-.08.8.07,1.61.1,2.41.09.16,0,.41-.25.46-.42.17-.65.73-1.23.35-2a.86.86,0,0,1,.15-.67,5.51,5.51,0,0,0,1-3.1c0-1.52.75-2.9.82-4.34.11-2.06,1.3-3.78,1.45-5.79a2,2,0,0,1,.52-.86c.29-.35.68-.6.64-1.18,0-.21.36-.54.62-.67.6-.31,1.28-.45,1.85-.79a2,2,0,0,1,2.41.06c.42.28,1,.35,1.41.62A4.2,4.2,0,0,1,61,29.82c.11.31-.28.8-.44,1.21-.17-.11-.48-.19-.5-.32a3.1,3.1,0,0,0-1.93-2.33,6,6,0,0,0-2.38-.21c-.12,0-.26.2-.35.34-1.37,2.1-2.7,4.2-2.92,6.83a28.73,28.73,0,0,1-.85,3.31c-.14.64,0,1.35-.14,2-.41,1.59-.37,3.27-1.12,4.8-.38.79,0,1,1,.93s2.19-.11,3.28-.19,2.36-.29,3.54-.3a18.65,18.65,0,0,1,2.87.31,23.25,23.25,0,0,0,5.83-.34c1.26-.12,2.53-.19,3.79-.35.72-.08,1.43-.32,2.15-.43.53-.07,1.07,0,1.6-.06,1.07-.11,2.12-.28,3.19-.37.51,0,1,0,1.55,0a19.06,19.06,0,0,0,5.32-.48,9.59,9.59,0,0,1,1.7,0c.51-.06,1-.22,1.53-.32a.2.2,0,0,1,.17,0c1.42.9,2.84,0,4.27,0,.5,0,1,.17,1.52.13a7.45,7.45,0,0,0,2.11-.34,3.44,3.44,0,0,1,2.32-.18,2.53,2.53,0,0,0,1,0c.85-.09,1.69-.24,2.54-.32,2-.18,3.93-.48,5.9-.47a14.71,14.71,0,0,0,5-.36c.18-.06.41.1.62.1a3.84,3.84,0,0,0,1.44,0c1.3-.54,2.57,0,3.83,0a24.34,24.34,0,0,0,3.11.16c1.35-.11,2.76-.55,4.17,0,.41.16,1-.24,1.5-.22,1.1,0,2.19.24,3.29.3a15.16,15.16,0,0,0,2.61,0,6.66,6.66,0,0,1,3.26,0,6.4,6.4,0,0,0,2.19,0l3.22,0a5.52,5.52,0,0,0,.57,0c1.65-.28,3.33.15,5-.28a9.62,9.62,0,0,1,2.61.27,7.06,7.06,0,0,0,3,0,4.65,4.65,0,0,1,4.25,0c.23.11.57,0,.85,0,.54,0,1.07.16,1.61.15a29.54,29.54,0,0,0,3.52-.18c1.53-.2,2.91.49,4.38.54A3.15,3.15,0,0,0,169,43,2.47,2.47,0,0,1,171,43a4.41,4.41,0,0,0,1.26.18,6.79,6.79,0,0,1,1.28,0,3.89,3.89,0,0,0,2.54-.21,4.6,4.6,0,0,1,1.18-.09c.55,0,1.09,0,1.64-.06.2,0,.4-.14.6-.15a8.65,8.65,0,0,0,3.08-.44,7,7,0,0,1,2.82-.05,2.73,2.73,0,0,1,1.18.34,1.18,1.18,0,0,1,.54.75c0,.15-.32.49-.56.55a25.14,25.14,0,0,1-3,.66A10.27,10.27,0,0,1,182,44.4a1.29,1.29,0,0,0-.82.13,3,3,0,0,1-2.23.48c-.11,0-.24,0-.33,0a4.18,4.18,0,0,1-3.59.17.35.35,0,0,0-.31.05,2.73,2.73,0,0,1-3.06.12,1.34,1.34,0,0,0-.77,0,2.51,2.51,0,0,1-2-.19,2.94,2.94,0,0,0-2.55-.12,8.44,8.44,0,0,1-3.4-.2,16.68,16.68,0,0,0-2.7-.31c-1.45.05-2.89-.36-4.39.38-.71.36-1.92-.28-2.91-.44A7.59,7.59,0,0,0,151.91,44.51ZM2.36,35.81a2,2,0,0,0,0,1.59,10.8,10.8,0,0,1,.93,3.48c0,.41.52.82.82,1.22.07.09.28.09.32.18.48.94,1.49,1.1,2.28,1.55,1,.59,2.75.3,2.86-.92a18.08,18.08,0,0,0-.28-2.82,3.66,3.66,0,0,1,0-1.84c.45-.85.1-1.6.07-2.39s0-1.62,0-2.43c0-.39-.12-.78-.11-1.17,0-1,.19-2,.13-2.94A6.91,6.91,0,0,1,9.53,27a3.55,3.55,0,0,0-.11-1.28,1.31,1.31,0,0,1,0-.48,12.5,12.5,0,0,0,.23-3.39,2.5,2.5,0,0,0-.8-2.24.86.86,0,0,0-.4-.23,4.47,4.47,0,0,1-2.36-1.73,6.09,6.09,0,0,1-1-1.44,7.74,7.74,0,0,1-1-2.18c-.22-1.18-1-2.25-.78-3.53a6,6,0,0,0,.17-.94c0-.42,0-.86,0-1.28a15.51,15.51,0,0,1,.33-1.62,9.55,9.55,0,0,1,.34-1A3.55,3.55,0,0,1,4.49,5c.17-.35.35-.69.55-1a3.67,3.67,0,0,1,.45-.64c.69-.72,1.39-1.41,2.1-2.1A.68.68,0,0,1,8,1,5.25,5.25,0,0,0,11.26.19,1.3,1.3,0,0,1,12.8.34a7.11,7.11,0,0,0,2.9.7,3.22,3.22,0,0,1,1.12.66,1.69,1.69,0,0,1,.48.64,5.33,5.33,0,0,1,.59,1.58,9.28,9.28,0,0,1-.48,4.58,3.47,3.47,0,0,1-.51.95c-.12.15-.4.16-.61.23C16.22,9.45,16,9.2,16.1,9A10.87,10.87,0,0,0,16.2,5c0-.49-.54-1-.93-1.41a5.23,5.23,0,0,0-1.26-1,3.06,3.06,0,0,0-1.18-.36,9.74,9.74,0,0,0-1.87,0,2.69,2.69,0,0,0-.85.35,5.77,5.77,0,0,0-1.23.65,14.07,14.07,0,0,0-1.49,1.5c-.18.2-.18.62-.38.74a2.35,2.35,0,0,0-1,1.6,16.33,16.33,0,0,1-.64,1.58,3.79,3.79,0,0,0-.17,1c0,.33,0,.67,0,1-.37,2,.84,3.29,1.93,4.63a8.54,8.54,0,0,1,2.1,3.07c0,.17.29.29.43.44.1-.16.27-.3.29-.47a9.26,9.26,0,0,0,0-1.18c0-.64-.09-1.28-.07-1.91,0-1.1.06-2.19.17-3.28.12-1.24.31-2.48.51-3.72,0-.17.28-.31.42-.46.13.2.36.39.38.6a22.38,22.38,0,0,1-.3,5.66,7.11,7.11,0,0,0,.19,1.41,6.42,6.42,0,0,1,0,1.24c0,.45-.18.89-.19,1.33a1.66,1.66,0,0,0,1.23,1.82,11.75,11.75,0,0,1,1.39.85,1.56,1.56,0,0,0,.71.29,1,1,0,0,1,1.07.65,1.48,1.48,0,0,0,1.45.87,3.91,3.91,0,0,1,3.8,2.49,21.35,21.35,0,0,0,1.89,2.82,7.9,7.9,0,0,1,.66,1.65,9.11,9.11,0,0,0,.26,1.06,3,3,0,0,1,.27,2.45c-.08.21.32.58.29.85-.18,1.39-.39,2.78-.67,4.15-.08.38-.51.67-.67,1.05-.31.7-.55,1.44-.82,2.17,0,.07,0,.19-.08.21a3.84,3.84,0,0,0-2,1.84,2,2,0,0,1-.49.59c-.29.22-.67.61-.91.55-1.22-.32-2.06.49-3,.87a16.31,16.31,0,0,1-2.45,1c-1.34.28-1.5,1.36-1.57,2.32a34,34,0,0,0,.12,4,1.41,1.41,0,0,1,0,.58A3.38,3.38,0,0,0,11.69,56c.52,1.12.1,2.34-.15,3.52a5.15,5.15,0,0,0,0,3.27,5.9,5.9,0,0,1,0,2c0,.75,0,1.5.06,2.26,0,.15.12.31.1.45a25.45,25.45,0,0,1-.54,3.72,1,1,0,0,0,.41,1.14c.59.56,1.21,1.09,1.8,1.65s.41,1.21-.32,1.84a.92.92,0,0,1-1.48-.14,21.26,21.26,0,0,1-1.3-1.81c-.37-.58-.82-.69-1.14-.12a1.76,1.76,0,0,1-1.85,1,1.35,1.35,0,0,0-.6.16c-1.54.69-2,.41-3-1a4.92,4.92,0,0,1-.71-4,2.63,2.63,0,0,1,2.6-1.63,8.92,8.92,0,0,1,1.43.58c1,.49,1.34.38,1.66-.71.36-1.24.83-2.48,0-3.77A1.61,1.61,0,0,1,9,62.53a1.83,1.83,0,0,0,.3-1.6,26.73,26.73,0,0,1-.52-4.38,4.69,4.69,0,0,1,.39-1.5c.09-.35.31-.75.22-1.06a7.76,7.76,0,0,1,0-4.88c.54-1.53-.55-2.76-2.34-2.74A3.92,3.92,0,0,1,4,45.23C3.76,45,3.3,45,3,45c-.65,0-1.14-.19-1.19-.87a2.55,2.55,0,0,0-1-1.67,1.75,1.75,0,0,1-.59-2c.12-.4-.11-.89-.13-1.35s0-1.07,0-1.61V35.68a7,7,0,0,1,0-1.12,15.41,15.41,0,0,1,.52-2.21,1.1,1.1,0,0,1,.68-.67c.21,0,.72.31.72.5a8.62,8.62,0,0,0,.56,2.71c.08.24-.09.56-.15.92m9.29,7.87a4,4,0,0,0,3.21-.39c.44-.19,1-.43,1.17-.8.36-1,1.69-1.05,1.8-2.15,1,0,1-.87,1.45-1.49a10.12,10.12,0,0,0,1.82-5,6.6,6.6,0,0,0,.15-.85,10.09,10.09,0,0,1-.11-2,1.32,1.32,0,0,0-.2-1.15,1.07,1.07,0,0,1-.17-.51c-.29-1.56-.65-3.05-2.62-3.27a1.51,1.51,0,0,1-.69-.35c-.79-.66-1.59-1.31-2.34-2a1.78,1.78,0,0,0-1.51-.61,1,1,0,0,1-1.08-.51c-.2-.29-.76-.34-1.16-.49a5.3,5.3,0,0,0-.3.93,1.62,1.62,0,0,0,0,1,2.51,2.51,0,0,1,0,2.28,1.16,1.16,0,0,0-.07.31c.11,1.29.31,2.58.32,3.87,0,2.07-.1,4.14-.15,6.21a2.47,2.47,0,0,0,0,.94,4.25,4.25,0,0,1,.06,3.12,3.19,3.19,0,0,0,.35,2.94M6.54,72.53a2.8,2.8,0,0,0,.63-.66.79.79,0,0,0,0-.72,2.91,2.91,0,0,0-2.49-.51,1.38,1.38,0,0,0-.32,1c0,.25.25.5.37.75C5.39,73.76,5.6,73.78,6.54,72.53Zm51.4-51.64a29.18,29.18,0,0,1-1-2.81c-.3-1.08-.51-2.19-.72-3.3a11.66,11.66,0,0,1-.13-1.45c0-.63-.25-1-1-.95a3.32,3.32,0,0,0-3,2.53c-.19.51-.33,1-.52,1.54-.05.13-.23.2-.35.3-.1-.17-.27-.33-.3-.51a4.44,4.44,0,0,1,1.24-3.33c.24-.32.54-.6.75-.94a2.25,2.25,0,0,1,3.48-.52A23.88,23.88,0,0,1,58,13.27a1,1,0,0,1,.21.57c0,1,0,2,0,3a.54.54,0,0,0,.23.38c.1,0,.38-.11.38-.18.12-1.51,1.41-2.32,2.07-3.5.1-.18.27-.42.44-.45a28.52,28.52,0,0,1,3-.33c.85,0,1.83,1.05,2.06,1.86a4.17,4.17,0,0,0,.83,1.23.31.31,0,0,0,.28,0c.63-.56,1.27-1.11,1.87-1.71,1-1,2-2.17,3.67-2.26.83,0,1.1.47,1.36,1.11.19.47.46.92.7,1.38s.51,1,.81,1.5a.47.47,0,0,0,.43.16c.71-.3,1.39-.7,2.12-.94a.7.7,0,0,1,.91.93,7.45,7.45,0,0,1-1.54,2.37,1.92,1.92,0,0,1-2.31.09,8.82,8.82,0,0,0-1.69-.56,1.74,1.74,0,0,1-1.17-2.39,2.27,2.27,0,0,0,0-.74c-.21.12-.44.23-.64.37a20.62,20.62,0,0,0-2,1.49c-.78.73-1.48,1.54-2.19,2.33a1.64,1.64,0,0,1-2.46.08,2.94,2.94,0,0,1-1.08-2.3c0-.74-.1-1.48-.18-2.22,0-.11-.16-.29-.24-.29a.92.92,0,0,0-.51.17,13.24,13.24,0,0,0-2.44,2.63,2.53,2.53,0,0,0-.19.9,2,2,0,0,1-.12.5c-.52.95-.61,2.16-1.88,2.65A.66.66,0,0,1,57.94,20.89ZM182.35,39.66c-.22,1.31-1.3,1.2-2.11.63a2.45,2.45,0,0,1-.61-3.17,3.44,3.44,0,0,1,.42-.75c.85-.94,1.63-1.88,1.33-3.31,0-.21.33-.53.56-.75.48-.47,1-.91,1.51-1.36a2,2,0,0,0,.77-1.53,6.08,6.08,0,0,1,.38-2.08c.17-.42.68-.7,1-1.06a3,3,0,0,0,.63-.81,8.14,8.14,0,0,1,2.63-3.86,3.26,3.26,0,0,0,.81-1.81,2.19,2.19,0,0,1,.73-1.37,3.19,3.19,0,0,0,1.33-2,1.31,1.31,0,0,1,.6-.81,4.6,4.6,0,0,0,2.23-3.17c.25-1.16,1.41-1.57,2.13-2.34.1-.1.68.1.9.31s0,.56-.12.82a7.59,7.59,0,0,1-.58,1.18c-.26.43-.45,1-.84,1.22a4.63,4.63,0,0,0-2,3.53,1.35,1.35,0,0,1-.11.45c-.48.84-1,1.64-1.45,2.5-.29.56-.39,1.24-.69,1.8a1.89,1.89,0,0,1-.95.84c-.55.18-.59.49-.67,1a23,23,0,0,1-.65,2.82,1.17,1.17,0,0,1-.58.74c-.93.28-1,1.07-1.26,1.81a4.2,4.2,0,0,1-1.41,2.25,2.16,2.16,0,0,0-.58.92c-.32.91-.52,1.85-.87,2.74a2.22,2.22,0,0,1-.94,1.14,1.49,1.49,0,0,0-.89,1.15C182.82,38,182.57,38.81,182.35,39.66Zm-57,20.62a6.07,6.07,0,0,1,2.86-2.3,8.49,8.49,0,0,1,4-1.23.83.83,0,0,1,.61.51,18.65,18.65,0,0,1,.52,2.21c.06.31,0,.64,0,1a2.85,2.85,0,0,0,.24.65c.13-.08.33-.12.39-.23.64-1.33,2-1.93,3-2.74a4.5,4.5,0,0,1,3-1.25,2.46,2.46,0,0,1,1,.22c1.06.53,2.05,1,2.34,2.43a2.67,2.67,0,0,0,1.74,2.32c.2,0,.49.13.61,0a3.58,3.58,0,0,1,2.25-.67,1.79,1.79,0,0,0,1.1-.86c.49-.76,1.12-1,1.83-.54a6.09,6.09,0,0,1,1.22,1.31c.41.53.08.77-.43,1-.95.4-1.86.89-2.8,1.3a5.79,5.79,0,0,1-1.28.35,6,6,0,0,1-1.63.15,5.12,5.12,0,0,1-2.19-.52,8.41,8.41,0,0,1-2-2,16.82,16.82,0,0,1-1.26-2.23c-.31-.6-1.77-.54-2.3.16a3.27,3.27,0,0,1-.91.78c-1,.62-2.23,1-2.49,2.42,0,.21-.72.37-1.12.42a1.22,1.22,0,0,1-1.34-.92c-.31-.91-.52-1.85-.87-2.74a1.46,1.46,0,0,0-.83-.79c-.2-.05-.54.4-.81.63a8.64,8.64,0,0,0-.69.66c-1.12,1.16-2.22,2.34-3.33,3.5a1.63,1.63,0,0,1-.66.49,4.32,4.32,0,0,1-1.51.15,1,1,0,0,1-.65-.63c-.28-1.21-.48-2.43-.69-3.65a1.42,1.42,0,0,1,0-.74.77.77,0,0,1,.52-.43c.13,0,.41.23.44.4.21.9.34,1.81.53,2.71.08.36.32.56.61.16S125,60.78,125.35,60.28Zm8.49-37.85c-.74.16-1.4.31-2.06.48-1.09.26-1.79-.46-2.57-1-.45-.31-.81-.84-1.52-.52-.12.06-.6-.33-.68-.59-.29-.84-.47-1.71-.7-2.56a8.85,8.85,0,0,1,.12-3.9,3.46,3.46,0,0,1,.72-1.89c.16-.17.25-.45.44-.56,1.42-.81,2.69-2,4.5-1.83a14.38,14.38,0,0,1,6.07,1.69,1.78,1.78,0,0,1,.45,2.45,13.3,13.3,0,0,0-.92,4.05c0,.14,0,.31,0,.42a21,21,0,0,1-1.44,2.74,2.43,2.43,0,0,1-2.4,1m-5.19-8.28c-.27.56-.57,1.1-.81,1.67,0,.13.07.35.15.51a20.62,20.62,0,0,0,1.64,2.93,1.42,1.42,0,0,0,1.42.66c1.32.06,2.44,0,3.44-1.26.67-.86,1.07-1.82,1.68-2.67a.92.92,0,0,0,.16-.75c-.54-1.1-.21-2.89-2.23-2.87-.23,0-.45-.34-.7-.49a2,2,0,0,0-.71-.31C130.63,11.33,129.49,12,128.65,14.15Zm-15.38-1.42c.83-.28,2.37.15,2.62.92.57,1.77,1.68,3.4,1.56,5.37,0,.77-.15,1.54-.16,2.3a10.63,10.63,0,0,0,.16,1.69c.16.89-.18,1.69-.78,1.76s-1.33-.73-1.39-1.4c-.09-1-.11-2.09-.18-3.13,0-.79-.15-1.57-.15-2.36a7,7,0,0,1,.26-1.64c.16-.62,0-.93-.66-1a4.39,4.39,0,0,0-.93-.15,2.67,2.67,0,0,0-1.11.34c-.54.33-1,.79-1.53,1.14a3.05,3.05,0,0,0-1.26,1.91,5.49,5.49,0,0,1-1.11,2.11,2.54,2.54,0,0,0-.68,2.07c.14,1.17-.63,1.72-1.42,2.24-.46.3-1.09-.42-1.1-1.26,0-1.39,0-2.79,0-4.18a9.7,9.7,0,0,1,.14-2.89c.13-.45-.13-1-.13-1.51,0-1,.13-2,.16-3,.07-2.35.11-4.71.17-7.06a1.36,1.36,0,0,1,.18-.59c.08-.14.25-.23.38-.35.09.15.25.3.26.46,0,.55,0,1.11,0,1.67.09,1.32.24,2.64.32,4a11.89,11.89,0,0,1-.15,1.18c0,.79,0,1.58,0,2.36,0,.46,0,.92,0,1.38,0,1.12,0,2.24,0,3.37,0,.11.14.21.22.32.1-.08.24-.15.29-.25a2.26,2.26,0,0,0,.3-.87.93.93,0,0,1,.8-1.1,1.71,1.71,0,0,0,.87-.85,3.43,3.43,0,0,1,2.09-1.78A14.54,14.54,0,0,0,113.27,12.73Zm34.79.5a1.89,1.89,0,0,1,.17-.59,2.27,2.27,0,0,1,.41-.41c.08.16.19.31.25.47.55,1.37.25,2.81.36,4.21a4.32,4.32,0,0,0,.38,1.17c.14-.37.3-.75.43-1.13.05-.15,0-.37.05-.48.74-1,1.09-2.22,2.34-3a21.75,21.75,0,0,1,3.4-1.73,1.86,1.86,0,0,1,2.76,1.63c.16,1,.42,2,.61,3.08,0,.19-.11.39-.12.59,0,1.09,0,2.19,0,3.29,0,.54.43.46.78.37a1.89,1.89,0,0,1,2.2,1.27,1.21,1.21,0,0,1-.18,1,1.66,1.66,0,0,1-1.11.37,3,3,0,0,0-1.93.19c-1.08.66-2.09,0-2.12-1.27a9.45,9.45,0,0,1,.44-3.42c.15-.4-.08-.93-.09-1.41a17.75,17.75,0,0,0,0-2.53,1.89,1.89,0,0,0-.91-1.15c-.48-.25-.76.28-1.07.64-.87,1-1.86,1.93-2.69,3a8.8,8.8,0,0,0-1.13,2.2c-.45,1.13-.75,2.31-1.23,3.42a1.09,1.09,0,0,1-1,.38,1.68,1.68,0,0,1-.9-1.07c-.1-1.45,0-2.92,0-4.38Zm19.53,2a6.17,6.17,0,0,1,1.63-3.71c.61-.77,1.21-1.8,2.39-2a2.37,2.37,0,0,1,.78-.11c1.28.24,2.57.48,3.83.82A2.68,2.68,0,0,1,178,13a5.8,5.8,0,0,0,0,.59c0,1.36,0,1.34-1.35,1.84a17.43,17.43,0,0,0-2.34,1,3.59,3.59,0,0,1-2.14.49,4.7,4.7,0,0,0-.75,0c-1.43.07-1.65.6-1.19,1.91a2.8,2.8,0,0,0,2.12,1.89c.23.06.59.14.71,0,1-1,2.65-.49,3.7-1.46.49-.46.67,0,.55.39a27.59,27.59,0,0,1-1.05,2.74c-.1.22-.4.51-.6.51a15.75,15.75,0,0,1-3.83-.1,4.53,4.53,0,0,1-3.54-4.11.81.81,0,0,0-.17-.5c-1-.85-.66-1.92-.53-3m8.07-1.72c0-.15,0-.36-.13-.44a18.5,18.5,0,0,0-2-1.52c-.69-.41-2.06.14-2.61.67-.93.89-.65,2.12-1.06,3.15-.21.53.37.73.7.55a18.35,18.35,0,0,1,3.49-1C174.59,14.67,175.54,14.61,175.66,13.48ZM33.77,36.27c-.37.89-.44,1.89-1.29,2.44a1.27,1.27,0,0,1-.94.21c-.21-.07-.4-.52-.38-.8a3.73,3.73,0,0,1,.94-2.53,3.13,3.13,0,0,0,.64-1c.34-1,.55-2,.92-2.88.28-.69,1-1.28,1.06-2,.27-1.83,1.74-3,2.4-4.53a1.63,1.63,0,0,0,.19-.59A5.3,5.3,0,0,1,38.8,20.8,8.94,8.94,0,0,0,40,18.32a8.73,8.73,0,0,1,2.22-3.42A5.68,5.68,0,0,0,43,13.73c.56-.77,1.15-1.52,1.7-2.29.25-.36.4-.79.65-1.15a2.59,2.59,0,0,1,.71-.69,13.26,13.26,0,0,1,1.73-.86c.13-.06.37.14.56.22-.13.14-.27.28-.39.43-.32.41-.63.84-.95,1.26-.14.19-.27.39-.42.58a13.42,13.42,0,0,0-1.85,2.24,46.26,46.26,0,0,0-2.43,5,2.91,2.91,0,0,1-.81,1.16,5,5,0,0,0-1.34,3.13c0,.15,0,.36-.07.47a4,4,0,0,0-.94,2c0,.06,0,.15,0,.16-1.56.82-1.46,2.48-2,3.83s-1.13,2.37-1.7,3.56S34.36,35.07,33.77,36.27ZM79.94,64.71c.84-1.79,1.63-3.56,2.47-5.3A13,13,0,0,1,83.5,57.7c.2-.29.6-.8.66-.77a.88.88,0,0,1,.35,1.17,4.84,4.84,0,0,0,.29,3.4,4.69,4.69,0,0,1,.39,3c-.34,1.58-.47,3.21-.69,4.81a.85.85,0,0,0,.06.31,2.41,2.41,0,0,1-.34,2.73A1,1,0,0,0,84,73c0,.68-.43.79-.94.81a4.41,4.41,0,0,1-4.47-3.15,2.45,2.45,0,0,1,0-1A24.41,24.41,0,0,0,79,67a2.59,2.59,0,0,1,1-2.25m3.38-.88L83,63.08a3.87,3.87,0,0,0-.51.64c-.16.3-.19.65-.35.94s-.61.79-.82,1.24a10.09,10.09,0,0,1-.54,1.52c-.79,1.09-.54,2.14-.17,3.29.27.84.84,1,1.56,1.07s.58-.59.69-1a10.68,10.68,0,0,0,.59-2.5C83.52,66.87,83.38,65.43,83.32,63.83Zm5.19-33.37c-.36.43-.21.75-.11,1.19a11.68,11.68,0,0,1,.25,2.65,3.86,3.86,0,0,1-.33,1.6,1.16,1.16,0,0,1-2,.32c-.88-.85-.68-1.88-.42-2.89.21-.77.51-1.52.75-2.28a.54.54,0,0,0,0-.39c-.59-1.23-.07-2.45.06-3.67a21.32,21.32,0,0,0,.4-4.61,35.67,35.67,0,0,1,.25-5c0-1.1-.07-2.2-.09-3.3,0-1.27-.06-2.54,0-3.82,0-.17.34-.38.56-.48.07,0,.38.23.4.37.14,1.35.28,2.69.34,4s0,2.83,0,4.24c0,1,.29,1.93.3,2.9,0,.76-.24,1.52-.3,2.29s.07,1.42,0,2.11a17.28,17.28,0,0,0,.33,3.07A8.77,8.77,0,0,1,88.51,30.46Zm8-14.93a5.07,5.07,0,0,1-3.89.24c-.6-.27-.82.33-1.09.72-.09.14-.2.28-.3.42-.12-.15-.34-.28-.35-.44a5.87,5.87,0,0,1,0-1.45,25,25,0,0,1,.68-3.23,18.46,18.46,0,0,1,2.51-4.64A1.47,1.47,0,0,1,96,6.52a3.2,3.2,0,0,0,1.16,0,1,1,0,0,1,1.06.87c.29,1.25.61,2.49.83,3.75a2.94,2.94,0,0,1-.17,1.3,7.44,7.44,0,0,1-2.37,3.07m-1.89-6a10.77,10.77,0,0,0-1.3,2.2c-.25.76-.27,1.56-1,2.12-.07.07,0,.25-.07.38a2.3,2.3,0,0,0,.37,0,3.92,3.92,0,0,1,1-.15,2.25,2.25,0,0,0,2.61-1.52c.37-1.34,1.33-2.67.12-4.09-.41-.49-.63-.58-1,0C95.17,8.77,94.93,9.12,94.61,9.55Zm19,50.69a4.21,4.21,0,0,0-2.79.2,5.13,5.13,0,0,0-1.46.49,18,18,0,0,0-1.7,1.32c-.29.23-.61.65-.88.63-1.12-.11-1.58.77-2.08,1.41a5.83,5.83,0,0,0-.78,2.08c-.15.54-.19,1.17-.85,1.29-.38.06-1,0-1.15-.2a1.4,1.4,0,0,1-.37-1.63,4.74,4.74,0,0,0,.4-2.9c-.21-1.3.06-2.66-.35-4a7.56,7.56,0,0,1-.18-2.29.93.93,0,0,1,.37-.73c.43-.16.58.15.64.57.19,1.2.47,2.38.63,3.58.12,1,.11,1.92.19,2.88,0,.16.17.31.26.46a2.52,2.52,0,0,0,.39-.33c.72-1,1.42-1.93,2.15-2.87.15-.21.45-.48.62-.45.86.17,1.22-.48,1.74-.91a1.26,1.26,0,0,1,.79-.27,35.17,35.17,0,0,1,4.36.2c.59.07,1.12.63,1.65,1,0,0-.2.57-.33.58A6.75,6.75,0,0,1,113.6,60.24ZM82,53.71a8.1,8.1,0,0,0-1.77.39c-.22.1-.28.58-.41.89s-.17.37-.25.56c-.19-.14-.46-.23-.57-.42a1.86,1.86,0,0,1,1.13-2.42A5.56,5.56,0,0,1,85,53.85a3.49,3.49,0,0,1,.71,1,5,5,0,0,1,.59,1.17A21.74,21.74,0,0,1,87,58.78a7.89,7.89,0,0,0,1.74,4.48,2.59,2.59,0,0,1,.44,1.31c.17,1,.47,1.32,1.43,1.35.57,0,.78.3.75.83,0,.68-.81,1.45-1.44,1.32-.28-.06-.7-.44-.69-.66a1.68,1.68,0,0,0-.9-1.55c-1.19-.69-1.37-1.93-1.8-3A13.67,13.67,0,0,1,86,60.72c-.28-1.31-.47-2.64-.86-3.91a6.25,6.25,0,0,0-2.32-2.92A2.18,2.18,0,0,0,82,53.71Zm107.89-37.3c-.06.69-.2,1.21-.93,1.34s-1.18-.37-1.4-1c-.39-1.09-1.28-2-1-3.34a.47.47,0,0,0-.16-.34c-.92-1-.63-2.18-.65-3.32a.65.65,0,0,1,.24-.54.61.61,0,0,1,.55.21c.33.55.61,1.13.89,1.71C188.23,12.89,189.05,14.61,189.88,16.41ZM32.43,9.59c1,1.75,2,3.46,3.07,5.13.29.46.86.74,1.19,1.18A1.78,1.78,0,0,1,37.11,17a1.28,1.28,0,0,1-.7.82c-.16.08-.59-.18-.77-.39a9.5,9.5,0,0,1-.82-1.33c-.12-.2-.19-.43-.32-.61a26.11,26.11,0,0,1-2.59-5.11C31.69,9.94,31.69,9.54,32.43,9.59ZM169.3,66.43c-.06.86-.48,1.13-1.23,1s-2-1-1.91-1.53a1.65,1.65,0,0,1,.77-1,1.39,1.39,0,0,1,1.17-.08A6.26,6.26,0,0,1,169.3,66.43ZM125,25.9c.14.77-.51,2-1.13,2a1.1,1.1,0,0,1-.87-.63,1.3,1.3,0,0,1,.49-1.06C123.92,26,124.3,25.1,125,25.9Zm11.83.71a6,6,0,0,1,.8,1.7c.07.28-.2.89-.39.93a1.35,1.35,0,0,1-1-.38C135.78,28.37,136.17,27,136.85,26.61Zm7.32-18.77a18,18,0,0,1-1.67.95c-.06,0-.46-.35-.44-.49a1.47,1.47,0,0,1,2-1.25C144.44,7.18,144.53,7.47,144.17,7.84Zm-17.4-4.18c.18-.35.31-.65.45-1,.2.26.5.5.58.8A6,6,0,0,1,128,5.09c0,.2-.21.42-.38.57s-.39-.11-.42-.22A12.47,12.47,0,0,1,126.77,3.66Zm8.58,2.21c.11-.87.19-1.66.35-2.44,0-.19.31-.33.47-.5a2.64,2.64,0,0,1,.17.7,17.8,17.8,0,0,1-.18,2.19c0,.26-.33.48-.5.72A3.86,3.86,0,0,1,135.35,5.87ZM121.17,8.51a7.67,7.67,0,0,1-.85-.88c-.11-.15-.06-.41-.08-.62.18,0,.43,0,.53,0,.56.53,1.09,1.09,1.61,1.67a.41.41,0,0,1-.08.37.56.56,0,0,1-.49,0A4,4,0,0,1,121.17,8.51Zm22.5,16.06a19,19,0,0,1-2-1.15.83.83,0,0,1,.17-.63C142.36,22.52,143.79,23.85,143.67,24.57Zm-13.89,2c.5.23.79,1.36.45,1.7-.14.14-.52.24-.64.15s-.45-.5-.4-.71A4.44,4.44,0,0,1,129.78,26.57Z"/></g></g></g></svg>